<?xml version="1.0" encoding="UTF-8" standalone="no"?>
<!DOCTYPE svg PUBLIC "-//W3C//DTD SVG 1.1//EN"
 "http://www.w3.org/Graphics/SVG/1.1/DTD/svg11.dtd">
<!-- Generated by graphviz version 2.46.0 (20210119.1425)
 -->
<!-- Title: dependencies Pages: 1 -->
<svg width="636pt" height="211pt"
 viewBox="0.00 0.00 636.00 211.00" xmlns="http://www.w3.org/2000/svg" xmlns:xlink="http://www.w3.org/1999/xlink">
<g id="graph0" class="graph" transform="scale(1 1) rotate(0) translate(4 207)">
<title>dependencies</title>
<polygon fill="white" stroke="transparent" points="-4,4 -4,-207 632,-207 632,4 -4,4"/>
<text text-anchor="start" x="293.01" y="-42.4" font-family="sans-serif" font-weight="bold" font-size="14.00">Legend</text>
<polygon fill="#ffffb3" stroke="transparent" points="80,-10 80,-30 100,-30 100,-10 80,-10"/>
<text text-anchor="start" x="103.63" y="-15.4" font-family="sans-serif" font-size="14.00"> &#160;Declarations</text>
<polygon fill="#8dd3c7" stroke="transparent" points="193,-10 193,-30 213,-30 213,-10 193,-10"/>
<text text-anchor="start" x="216.73" y="-15.4" font-family="sans-serif" font-size="14.00"> &#160;Module</text>
<polygon fill="#80b1d3" stroke="transparent" points="279,-10 279,-30 299,-30 299,-10 279,-10"/>
<text text-anchor="start" x="302.78" y="-15.4" font-family="sans-serif" font-size="14.00"> &#160;Bootstrap</text>
<polygon fill="#fdb462" stroke="transparent" points="376,-10 376,-30 396,-30 396,-10 376,-10"/>
<text text-anchor="start" x="399.67" y="-15.4" font-family="sans-serif" font-size="14.00"> &#160;Providers</text>
<polygon fill="#fb8072" stroke="transparent" points="472,-10 472,-30 492,-30 492,-10 472,-10"/>
<text text-anchor="start" x="495.73" y="-15.4" font-family="sans-serif" font-size="14.00"> &#160;Exports</text>
<g id="clust1" class="cluster">
<title>cluster_AppModule</title>
<polygon fill="none" stroke="black" stroke-dasharray="1,5" points="8,-70 8,-195 620,-195 620,-70 8,-70"/>
</g>
<g id="clust6" class="cluster">
<title>cluster_AppModule_providers</title>
<polygon fill="none" stroke="black" points="482,-78 482,-130 612,-130 612,-78 482,-78"/>
</g>
<g id="clust3" class="cluster">
<title>cluster_AppModule_imports</title>
<polygon fill="none" stroke="black" points="16,-78 16,-130 474,-130 474,-78 16,-78"/>
</g>
<!-- AuthorModule -->
<g id="node1" class="node">
<title>AuthorModule</title>
<polygon fill="#8dd3c7" stroke="black" points="465.71,-122 462.71,-126 441.71,-126 438.71,-122 366.29,-122 366.29,-86 465.71,-86 465.71,-122"/>
<text text-anchor="middle" x="416" y="-99.8" font-family="Times,serif" font-size="14.00">AuthorModule</text>
</g>
<!-- AppModule -->
<g id="node5" class="node">
<title>AppModule</title>
<polygon fill="#8dd3c7" stroke="black" points="344.66,-187 341.66,-191 320.66,-191 317.66,-187 261.34,-187 261.34,-151 344.66,-151 344.66,-187"/>
<text text-anchor="middle" x="303" y="-164.8" font-family="Times,serif" font-size="14.00">AppModule</text>
</g>
<!-- AuthorModule&#45;&gt;AppModule -->
<g id="edge1" class="edge">
<title>AuthorModule&#45;&gt;AppModule</title>
<path fill="none" stroke="black" d="M416,-122.02C416,-139.37 416,-163 416,-163 416,-163 354.76,-163 354.76,-163"/>
<polygon fill="black" stroke="black" points="354.76,-159.5 344.76,-163 354.76,-166.5 354.76,-159.5"/>
</g>
<!-- BookModule -->
<g id="node2" class="node">
<title>BookModule</title>
<polygon fill="#8dd3c7" stroke="black" points="347.89,-122 344.89,-126 323.89,-126 320.89,-122 258.11,-122 258.11,-86 347.89,-86 347.89,-122"/>
<text text-anchor="middle" x="303" y="-99.8" font-family="Times,serif" font-size="14.00">BookModule</text>
</g>
<!-- BookModule&#45;&gt;AppModule -->
<g id="edge2" class="edge">
<title>BookModule&#45;&gt;AppModule</title>
<path fill="none" stroke="black" d="M303,-122.11C303,-122.11 303,-140.99 303,-140.99"/>
<polygon fill="black" stroke="black" points="299.5,-140.99 303,-150.99 306.5,-140.99 299.5,-140.99"/>
</g>
<!-- PublisherModule -->
<g id="node3" class="node">
<title>PublisherModule</title>
<polygon fill="#8dd3c7" stroke="black" points="240.43,-122 237.43,-126 216.43,-126 213.43,-122 127.57,-122 127.57,-86 240.43,-86 240.43,-122"/>
<text text-anchor="middle" x="184" y="-99.8" font-family="Times,serif" font-size="14.00">PublisherModule</text>
</g>
<!-- PublisherModule&#45;&gt;AppModule -->
<g id="edge3" class="edge">
<title>PublisherModule&#45;&gt;AppModule</title>
<path fill="none" stroke="black" d="M184,-122.02C184,-139.37 184,-163 184,-163 184,-163 251.05,-163 251.05,-163"/>
<polygon fill="black" stroke="black" points="251.05,-166.5 261.05,-163 251.05,-159.5 251.05,-166.5"/>
</g>
<!-- UserModule -->
<g id="node4" class="node">
<title>UserModule</title>
<polygon fill="#8dd3c7" stroke="black" points="109.98,-122 106.98,-126 85.98,-126 82.98,-122 24.02,-122 24.02,-86 109.98,-86 109.98,-122"/>
<text text-anchor="middle" x="67" y="-99.8" font-family="Times,serif" font-size="14.00">UserModule</text>
</g>
<!-- UserModule&#45;&gt;AppModule -->
<g id="edge4" class="edge">
<title>UserModule&#45;&gt;AppModule</title>
<path fill="none" stroke="black" d="M67,-122.28C67,-143.32 67,-175 67,-175 67,-175 251.08,-175 251.08,-175"/>
<polygon fill="black" stroke="black" points="251.08,-178.5 261.08,-175 251.08,-171.5 251.08,-178.5"/>
</g>
<!-- AppService -->
<g id="node6" class="node">
<title>AppService</title>
<ellipse fill="#fdb462" stroke="black" cx="547" cy="-104" rx="56.74" ry="18"/>
<text text-anchor="middle" x="547" y="-99.8" font-family="Times,serif" font-size="14.00">AppService</text>
</g>
<!-- AppService&#45;&gt;AppModule -->
<g id="edge5" class="edge">
<title>AppService&#45;&gt;AppModule</title>
<path fill="none" stroke="black" d="M547,-122.28C547,-143.32 547,-175 547,-175 547,-175 354.67,-175 354.67,-175"/>
<polygon fill="black" stroke="black" points="354.67,-171.5 344.67,-175 354.67,-178.5 354.67,-171.5"/>
</g>
</g>
</svg>
