<?xml version="1.0" encoding="UTF-8" standalone="no"?>
<!DOCTYPE svg PUBLIC "-//W3C//DTD SVG 1.1//EN"
 "http://www.w3.org/Graphics/SVG/1.1/DTD/svg11.dtd">
<!-- Generated by graphviz version 2.46.0 (20210119.1425)
 -->
<!-- Title: dependencies Pages: 1 -->
<svg width="737pt" height="287pt"
 viewBox="0.00 0.00 737.00 287.00" xmlns="http://www.w3.org/2000/svg" xmlns:xlink="http://www.w3.org/1999/xlink">
<g id="graph0" class="graph" transform="scale(1 1) rotate(0) translate(4 283)">
<title>dependencies</title>
<polygon fill="white" stroke="transparent" points="-4,4 -4,-283 733,-283 733,4 -4,4"/>
<text text-anchor="start" x="343.51" y="-42.4" font-family="sans-serif" font-weight="bold" font-size="14.00">Legend</text>
<polygon fill="#ffffb3" stroke="transparent" points="130.5,-10 130.5,-30 150.5,-30 150.5,-10 130.5,-10"/>
<text text-anchor="start" x="154.13" y="-15.4" font-family="sans-serif" font-size="14.00"> &#160;Declarations</text>
<polygon fill="#8dd3c7" stroke="transparent" points="243.5,-10 243.5,-30 263.5,-30 263.5,-10 243.5,-10"/>
<text text-anchor="start" x="267.23" y="-15.4" font-family="sans-serif" font-size="14.00"> &#160;Module</text>
<polygon fill="#80b1d3" stroke="transparent" points="329.5,-10 329.5,-30 349.5,-30 349.5,-10 329.5,-10"/>
<text text-anchor="start" x="353.28" y="-15.4" font-family="sans-serif" font-size="14.00"> &#160;Bootstrap</text>
<polygon fill="#fdb462" stroke="transparent" points="426.5,-10 426.5,-30 446.5,-30 446.5,-10 426.5,-10"/>
<text text-anchor="start" x="450.17" y="-15.4" font-family="sans-serif" font-size="14.00"> &#160;Providers</text>
<polygon fill="#fb8072" stroke="transparent" points="522.5,-10 522.5,-30 542.5,-30 542.5,-10 522.5,-10"/>
<text text-anchor="start" x="546.23" y="-15.4" font-family="sans-serif" font-size="14.00"> &#160;Exports</text>
<g id="clust1" class="cluster">
<title>cluster_AppModule</title>
<polygon fill="none" stroke="black" stroke-dasharray="1,5" points="8,-146 8,-271 620,-271 620,-146 8,-146"/>
</g>
<g id="clust3" class="cluster">
<title>cluster_AppModule_imports</title>
<polygon fill="none" stroke="black" points="154,-154 154,-206 612,-206 612,-154 154,-154"/>
</g>
<g id="clust6" class="cluster">
<title>cluster_AppModule_providers</title>
<polygon fill="none" stroke="black" points="16,-154 16,-206 146,-206 146,-154 16,-154"/>
</g>
<g id="clust7" class="cluster">
<title>cluster_AuthorModule</title>
<polygon fill="none" stroke="black" stroke-dasharray="1,5" points="45,-70 45,-138 211,-138 211,-70 45,-70"/>
</g>
<g id="clust12" class="cluster">
<title>cluster_AuthorModule_providers</title>
<polygon fill="none" stroke="black" points="53,-78 53,-130 203,-130 203,-78 53,-78"/>
</g>
<g id="clust13" class="cluster">
<title>cluster_BookModule</title>
<polygon fill="none" stroke="black" stroke-dasharray="1,5" points="219,-70 219,-138 373,-138 373,-70 219,-70"/>
</g>
<g id="clust18" class="cluster">
<title>cluster_BookModule_providers</title>
<polygon fill="none" stroke="black" points="227,-78 227,-130 365,-130 365,-78 227,-78"/>
</g>
<g id="clust19" class="cluster">
<title>cluster_PublisherModule</title>
<polygon fill="none" stroke="black" stroke-dasharray="1,5" points="381,-70 381,-138 565,-138 565,-70 381,-70"/>
</g>
<g id="clust24" class="cluster">
<title>cluster_PublisherModule_providers</title>
<polygon fill="none" stroke="black" points="389,-78 389,-130 557,-130 557,-78 389,-78"/>
</g>
<g id="clust25" class="cluster">
<title>cluster_UserModule</title>
<polygon fill="none" stroke="black" stroke-dasharray="1,5" points="573,-70 573,-138 721,-138 721,-70 573,-70"/>
</g>
<g id="clust30" class="cluster">
<title>cluster_UserModule_providers</title>
<polygon fill="none" stroke="black" points="581,-78 581,-130 713,-130 713,-78 581,-78"/>
</g>
<!-- AuthorModule -->
<g id="node1" class="node">
<title>AuthorModule</title>
<polygon fill="#8dd3c7" stroke="black" points="261.71,-198 258.71,-202 237.71,-202 234.71,-198 162.29,-198 162.29,-162 261.71,-162 261.71,-198"/>
<text text-anchor="middle" x="212" y="-175.8" font-family="Times,serif" font-size="14.00">AuthorModule</text>
</g>
<!-- AppModule -->
<g id="node5" class="node">
<title>AppModule</title>
<polygon fill="#8dd3c7" stroke="black" points="366.66,-263 363.66,-267 342.66,-267 339.66,-263 283.34,-263 283.34,-227 366.66,-227 366.66,-263"/>
<text text-anchor="middle" x="325" y="-240.8" font-family="Times,serif" font-size="14.00">AppModule</text>
</g>
<!-- AuthorModule&#45;&gt;AppModule -->
<g id="edge1" class="edge">
<title>AuthorModule&#45;&gt;AppModule</title>
<path fill="none" stroke="black" d="M212,-198.02C212,-215.37 212,-239 212,-239 212,-239 273.24,-239 273.24,-239"/>
<polygon fill="black" stroke="black" points="273.24,-242.5 283.24,-239 273.24,-235.5 273.24,-242.5"/>
</g>
<!-- BookModule -->
<g id="node2" class="node">
<title>BookModule</title>
<polygon fill="#8dd3c7" stroke="black" points="369.89,-198 366.89,-202 345.89,-202 342.89,-198 280.11,-198 280.11,-162 369.89,-162 369.89,-198"/>
<text text-anchor="middle" x="325" y="-175.8" font-family="Times,serif" font-size="14.00">BookModule</text>
</g>
<!-- BookModule&#45;&gt;AppModule -->
<g id="edge2" class="edge">
<title>BookModule&#45;&gt;AppModule</title>
<path fill="none" stroke="black" d="M325,-198.11C325,-198.11 325,-216.99 325,-216.99"/>
<polygon fill="black" stroke="black" points="321.5,-216.99 325,-226.99 328.5,-216.99 321.5,-216.99"/>
</g>
<!-- PublisherModule -->
<g id="node3" class="node">
<title>PublisherModule</title>
<polygon fill="#8dd3c7" stroke="black" points="500.43,-198 497.43,-202 476.43,-202 473.43,-198 387.57,-198 387.57,-162 500.43,-162 500.43,-198"/>
<text text-anchor="middle" x="444" y="-175.8" font-family="Times,serif" font-size="14.00">PublisherModule</text>
</g>
<!-- PublisherModule&#45;&gt;AppModule -->
<g id="edge3" class="edge">
<title>PublisherModule&#45;&gt;AppModule</title>
<path fill="none" stroke="black" d="M444,-198.02C444,-215.37 444,-239 444,-239 444,-239 376.95,-239 376.95,-239"/>
<polygon fill="black" stroke="black" points="376.95,-235.5 366.95,-239 376.95,-242.5 376.95,-235.5"/>
</g>
<!-- UserModule -->
<g id="node4" class="node">
<title>UserModule</title>
<polygon fill="#8dd3c7" stroke="black" points="603.98,-198 600.98,-202 579.98,-202 576.98,-198 518.02,-198 518.02,-162 603.98,-162 603.98,-198"/>
<text text-anchor="middle" x="561" y="-175.8" font-family="Times,serif" font-size="14.00">UserModule</text>
</g>
<!-- UserModule&#45;&gt;AppModule -->
<g id="edge4" class="edge">
<title>UserModule&#45;&gt;AppModule</title>
<path fill="none" stroke="black" d="M561,-198.28C561,-219.32 561,-251 561,-251 561,-251 376.92,-251 376.92,-251"/>
<polygon fill="black" stroke="black" points="376.92,-247.5 366.92,-251 376.92,-254.5 376.92,-247.5"/>
</g>
<!-- AppService -->
<g id="node6" class="node">
<title>AppService</title>
<ellipse fill="#fdb462" stroke="black" cx="81" cy="-180" rx="56.74" ry="18"/>
<text text-anchor="middle" x="81" y="-175.8" font-family="Times,serif" font-size="14.00">AppService</text>
</g>
<!-- AppService&#45;&gt;AppModule -->
<g id="edge5" class="edge">
<title>AppService&#45;&gt;AppModule</title>
<path fill="none" stroke="black" d="M81,-198.28C81,-219.32 81,-251 81,-251 81,-251 273.33,-251 273.33,-251"/>
<polygon fill="black" stroke="black" points="273.33,-254.5 283.33,-251 273.33,-247.5 273.33,-254.5"/>
</g>
<!-- AuthorService -->
<g id="node7" class="node">
<title>AuthorService</title>
<ellipse fill="#fdb462" stroke="black" cx="128" cy="-104" rx="67.19" ry="18"/>
<text text-anchor="middle" x="128" y="-99.8" font-family="Times,serif" font-size="14.00">AuthorService</text>
</g>
<!-- AuthorService&#45;&gt;AuthorModule -->
<g id="edge6" class="edge">
<title>AuthorService&#45;&gt;AuthorModule</title>
<path fill="none" stroke="black" d="M178.87,-115.88C178.87,-115.88 178.87,-151.99 178.87,-151.99"/>
<polygon fill="black" stroke="black" points="175.37,-151.99 178.87,-161.99 182.37,-151.99 175.37,-151.99"/>
</g>
<!-- BookService -->
<g id="node8" class="node">
<title>BookService</title>
<ellipse fill="#fdb462" stroke="black" cx="296" cy="-104" rx="60.84" ry="18"/>
<text text-anchor="middle" x="296" y="-99.8" font-family="Times,serif" font-size="14.00">BookService</text>
</g>
<!-- BookService&#45;&gt;BookModule -->
<g id="edge7" class="edge">
<title>BookService&#45;&gt;BookModule</title>
<path fill="none" stroke="black" d="M318.49,-120.87C318.49,-120.87 318.49,-151.85 318.49,-151.85"/>
<polygon fill="black" stroke="black" points="314.99,-151.85 318.49,-161.85 321.99,-151.85 314.99,-151.85"/>
</g>
<!-- PublisherService -->
<g id="node9" class="node">
<title>PublisherService</title>
<ellipse fill="#fdb462" stroke="black" cx="473" cy="-104" rx="76.44" ry="18"/>
<text text-anchor="middle" x="473" y="-99.8" font-family="Times,serif" font-size="14.00">PublisherService</text>
</g>
<!-- PublisherService&#45;&gt;PublisherModule -->
<g id="edge8" class="edge">
<title>PublisherService&#45;&gt;PublisherModule</title>
<path fill="none" stroke="black" d="M448.37,-121.25C448.37,-121.25 448.37,-151.76 448.37,-151.76"/>
<polygon fill="black" stroke="black" points="444.87,-151.76 448.37,-161.76 451.87,-151.76 444.87,-151.76"/>
</g>
<!-- UserService -->
<g id="node10" class="node">
<title>UserService</title>
<ellipse fill="#fdb462" stroke="black" cx="647" cy="-104" rx="58.44" ry="18"/>
<text text-anchor="middle" x="647" y="-99.8" font-family="Times,serif" font-size="14.00">UserService</text>
</g>
<!-- UserService&#45;&gt;UserModule -->
<g id="edge9" class="edge">
<title>UserService&#45;&gt;UserModule</title>
<path fill="none" stroke="black" d="M596.38,-113.02C596.38,-113.02 596.38,-151.74 596.38,-151.74"/>
<polygon fill="black" stroke="black" points="592.88,-151.74 596.38,-161.74 599.88,-151.74 592.88,-151.74"/>
</g>
</g>
</svg>
