<?xml version="1.0" encoding="UTF-8" standalone="no"?>
<!DOCTYPE svg PUBLIC "-//W3C//DTD SVG 1.1//EN"
 "http://www.w3.org/Graphics/SVG/1.1/DTD/svg11.dtd">
<!-- Generated by graphviz version 2.46.0 (20210119.1425)
 -->
<!-- Title: dependencies Pages: 1 -->
<svg width="504pt" height="211pt"
 viewBox="0.00 0.00 504.00 211.00" xmlns="http://www.w3.org/2000/svg" xmlns:xlink="http://www.w3.org/1999/xlink">
<g id="graph0" class="graph" transform="scale(1 1) rotate(0) translate(4 207)">
<title>dependencies</title>
<polygon fill="white" stroke="transparent" points="-4,4 -4,-207 500,-207 500,4 -4,4"/>
<text text-anchor="start" x="227.01" y="-42.4" font-family="sans-serif" font-weight="bold" font-size="14.00">Legend</text>
<polygon fill="#ffffb3" stroke="transparent" points="14,-10 14,-30 34,-30 34,-10 14,-10"/>
<text text-anchor="start" x="37.63" y="-15.4" font-family="sans-serif" font-size="14.00"> &#160;Declarations</text>
<polygon fill="#8dd3c7" stroke="transparent" points="127,-10 127,-30 147,-30 147,-10 127,-10"/>
<text text-anchor="start" x="150.73" y="-15.4" font-family="sans-serif" font-size="14.00"> &#160;Module</text>
<polygon fill="#80b1d3" stroke="transparent" points="213,-10 213,-30 233,-30 233,-10 213,-10"/>
<text text-anchor="start" x="236.78" y="-15.4" font-family="sans-serif" font-size="14.00"> &#160;Bootstrap</text>
<polygon fill="#fdb462" stroke="transparent" points="310,-10 310,-30 330,-30 330,-10 310,-10"/>
<text text-anchor="start" x="333.67" y="-15.4" font-family="sans-serif" font-size="14.00"> &#160;Providers</text>
<polygon fill="#fb8072" stroke="transparent" points="406,-10 406,-30 426,-30 426,-10 406,-10"/>
<text text-anchor="start" x="429.73" y="-15.4" font-family="sans-serif" font-size="14.00"> &#160;Exports</text>
<g id="clust1" class="cluster">
<title>cluster_UserModule</title>
<polygon fill="none" stroke="black" stroke-dasharray="1,5" points="89.5,-70 89.5,-195 406.5,-195 406.5,-70 89.5,-70"/>
</g>
<g id="clust6" class="cluster">
<title>cluster_UserModule_providers</title>
<polygon fill="none" stroke="black" points="97.5,-78 97.5,-130 398.5,-130 398.5,-78 97.5,-78"/>
</g>
<!-- DatabaseService -->
<g id="node1" class="node">
<title>DatabaseService</title>
<ellipse fill="#fdb462" stroke="black" cx="315.5" cy="-104" rx="75.26" ry="18"/>
<text text-anchor="middle" x="315.5" y="-99.8" font-family="Times,serif" font-size="14.00">DatabaseService</text>
</g>
<!-- UserModule -->
<g id="node3" class="node">
<title>UserModule</title>
<polygon fill="#8dd3c7" stroke="black" points="282.48,-187 279.48,-191 258.48,-191 255.48,-187 196.52,-187 196.52,-151 282.48,-151 282.48,-187"/>
<text text-anchor="middle" x="239.5" y="-164.8" font-family="Times,serif" font-size="14.00">UserModule</text>
</g>
<!-- DatabaseService&#45;&gt;UserModule -->
<g id="edge1" class="edge">
<title>DatabaseService&#45;&gt;UserModule</title>
<path fill="none" stroke="black" d="M261.31,-116.53C261.31,-116.53 261.31,-140.85 261.31,-140.85"/>
<polygon fill="black" stroke="black" points="257.81,-140.85 261.31,-150.85 264.81,-140.85 257.81,-140.85"/>
</g>
<!-- UserService -->
<g id="node2" class="node">
<title>UserService</title>
<ellipse fill="#fdb462" stroke="black" cx="163.5" cy="-104" rx="58.44" ry="18"/>
<text text-anchor="middle" x="163.5" y="-99.8" font-family="Times,serif" font-size="14.00">UserService</text>
</g>
<!-- UserService&#45;&gt;UserModule -->
<g id="edge2" class="edge">
<title>UserService&#45;&gt;UserModule</title>
<path fill="none" stroke="black" d="M209.12,-115.32C209.12,-115.32 209.12,-140.94 209.12,-140.94"/>
<polygon fill="black" stroke="black" points="205.62,-140.94 209.12,-150.94 212.62,-140.94 205.62,-140.94"/>
</g>
</g>
</svg>
