<?xml version="1.0" encoding="UTF-8" standalone="no"?>
<!DOCTYPE svg PUBLIC "-//W3C//DTD SVG 1.1//EN"
 "http://www.w3.org/Graphics/SVG/1.1/DTD/svg11.dtd">
<!-- Generated by graphviz version 2.46.0 (20210119.1425)
 -->
<!-- Title: dependencies Pages: 1 -->
<svg width="504pt" height="211pt"
 viewBox="0.00 0.00 504.00 211.00" xmlns="http://www.w3.org/2000/svg" xmlns:xlink="http://www.w3.org/1999/xlink">
<g id="graph0" class="graph" transform="scale(1 1) rotate(0) translate(4 207)">
<title>dependencies</title>
<polygon fill="white" stroke="transparent" points="-4,4 -4,-207 500,-207 500,4 -4,4"/>
<text text-anchor="start" x="227.01" y="-42.4" font-family="sans-serif" font-weight="bold" font-size="14.00">Legend</text>
<polygon fill="#ffffb3" stroke="transparent" points="14,-10 14,-30 34,-30 34,-10 14,-10"/>
<text text-anchor="start" x="37.63" y="-15.4" font-family="sans-serif" font-size="14.00"> &#160;Declarations</text>
<polygon fill="#8dd3c7" stroke="transparent" points="127,-10 127,-30 147,-30 147,-10 127,-10"/>
<text text-anchor="start" x="150.73" y="-15.4" font-family="sans-serif" font-size="14.00"> &#160;Module</text>
<polygon fill="#80b1d3" stroke="transparent" points="213,-10 213,-30 233,-30 233,-10 213,-10"/>
<text text-anchor="start" x="236.78" y="-15.4" font-family="sans-serif" font-size="14.00"> &#160;Bootstrap</text>
<polygon fill="#fdb462" stroke="transparent" points="310,-10 310,-30 330,-30 330,-10 310,-10"/>
<text text-anchor="start" x="333.67" y="-15.4" font-family="sans-serif" font-size="14.00"> &#160;Providers</text>
<polygon fill="#fb8072" stroke="transparent" points="406,-10 406,-30 426,-30 426,-10 406,-10"/>
<text text-anchor="start" x="429.73" y="-15.4" font-family="sans-serif" font-size="14.00"> &#160;Exports</text>
<g id="clust1" class="cluster">
<title>cluster_PublisherModule</title>
<polygon fill="none" stroke="black" stroke-dasharray="1,5" points="71.5,-70 71.5,-195 424.5,-195 424.5,-70 71.5,-70"/>
</g>
<g id="clust6" class="cluster">
<title>cluster_PublisherModule_providers</title>
<polygon fill="none" stroke="black" points="79.5,-78 79.5,-130 416.5,-130 416.5,-78 79.5,-78"/>
</g>
<!-- DatabaseService -->
<g id="node1" class="node">
<title>DatabaseService</title>
<ellipse fill="#fdb462" stroke="black" cx="333.5" cy="-104" rx="75.26" ry="18"/>
<text text-anchor="middle" x="333.5" y="-99.8" font-family="Times,serif" font-size="14.00">DatabaseService</text>
</g>
<!-- PublisherModule -->
<g id="node3" class="node">
<title>PublisherModule</title>
<polygon fill="#8dd3c7" stroke="black" points="304.93,-187 301.93,-191 280.93,-191 277.93,-187 192.07,-187 192.07,-151 304.93,-151 304.93,-187"/>
<text text-anchor="middle" x="248.5" y="-164.8" font-family="Times,serif" font-size="14.00">PublisherModule</text>
</g>
<!-- DatabaseService&#45;&gt;PublisherModule -->
<g id="edge1" class="edge">
<title>DatabaseService&#45;&gt;PublisherModule</title>
<path fill="none" stroke="black" d="M281.42,-117.15C281.42,-117.15 281.42,-140.69 281.42,-140.69"/>
<polygon fill="black" stroke="black" points="277.92,-140.69 281.42,-150.69 284.92,-140.69 277.92,-140.69"/>
</g>
<!-- PublisherService -->
<g id="node2" class="node">
<title>PublisherService</title>
<ellipse fill="#fdb462" stroke="black" cx="163.5" cy="-104" rx="76.44" ry="18"/>
<text text-anchor="middle" x="163.5" y="-99.8" font-family="Times,serif" font-size="14.00">PublisherService</text>
</g>
<!-- PublisherService&#45;&gt;PublisherModule -->
<g id="edge2" class="edge">
<title>PublisherService&#45;&gt;PublisherModule</title>
<path fill="none" stroke="black" d="M216.13,-117.15C216.13,-117.15 216.13,-140.69 216.13,-140.69"/>
<polygon fill="black" stroke="black" points="212.63,-140.69 216.13,-150.69 219.63,-140.69 212.63,-140.69"/>
</g>
</g>
</svg>
